<?xml version="1.0" standalone="no"?><!DOCTYPE svg PUBLIC "-//W3C//DTD SVG 1.1//EN" "http://www.w3.org/Graphics/SVG/1.1/DTD/svg11.dtd"><svg t="1562375990891" class="icon" viewBox="0 0 1024 1024" version="1.1" xmlns="http://www.w3.org/2000/svg" p-id="1725" width="32" height="32" xmlns:xlink="http://www.w3.org/1999/xlink"><defs><style type="text/css"></style></defs><path d="M213.333333 533.333333a21.333333 21.333333 0 0 1 0-42.666666l577.706667-1.92a21.333333 21.333333 0 0 1 0 42.666666L213.333333 533.333333z" p-id="1726"></path><path d="M512 810.666667a21.333333 21.333333 0 0 1-15.573333-6.826667 21.333333 21.333333 0 0 1 1.066666-30.08L779.306667 512 497.493333 250.24a21.333333 21.333333 0 1 1 29.013334-31.146667l298.666666 277.333334a21.333333 21.333333 0 0 1 0 31.146666l-298.666666 277.333334A21.333333 21.333333 0 0 1 512 810.666667z" p-id="1727"></path></svg>