<?xml version="1.0" standalone="no"?><!DOCTYPE svg PUBLIC "-//W3C//DTD SVG 1.1//EN" "http://www.w3.org/Graphics/SVG/1.1/DTD/svg11.dtd"><svg t="1562375339339" class="icon" viewBox="0 0 1024 1024" version="1.1" xmlns="http://www.w3.org/2000/svg" p-id="1991" width="32" height="32" xmlns:xlink="http://www.w3.org/1999/xlink"><defs><style type="text/css"></style></defs><path d="M490.965333 913.194667c-219.285333 0-397.034667-175.786667-397.034666-392.618667C93.930667 303.786667 271.68 128 490.965333 128c124.864 0 240.149333 57.365333 314.837334 153.301333 8.256 10.602667 6.250667 25.813333-4.48 33.984a24.682667 24.682667 0 0 1-34.346667-4.437333 348.757333 348.757333 0 0 0-276.010667-134.4c-192.213333 0-348.032 154.069333-348.032 344.128 0 190.08 155.818667 344.170667 348.032 344.170667 13.546667 0 24.512 10.837333 24.512 24.213333s-10.965333 24.234667-24.512 24.234667z" p-id="1992"></path><path d="M837.12 152.234667v175.018666c0 13.397333-10.986667 24.234667-24.512 24.234667a24.362667 24.362667 0 0 1-24.490667-24.234667V152.234667c0-13.397333 10.965333-24.234667 24.490667-24.234667 13.525333 0 24.490667 10.837333 24.490667 24.234667zM918.826667 547.733333a24.32 24.32 0 0 0-22.784-25.002666 24.362667 24.362667 0 0 0-26.133334 22.464 337.642667 337.642667 0 0 1-11.498666 66.773333c-3.584 12.864 4.053333 26.218667 17.109333 29.76a24.533333 24.533333 0 0 0 30.122667-16.917333c6.912-24.768 11.349333-50.432 13.141333-76.245334l0.042667-0.853333zM876.714667 685.013333a24.192 24.192 0 0 0-13.376-22.442666 24.597333 24.597333 0 0 0-32.938667 10.624 340.565333 340.565333 0 0 1-36.992 56.96 24.042667 24.042667 0 0 0 3.968 34.026666c10.602667 8.341333 26.005333 6.570667 34.410667-3.925333a386.901333 386.901333 0 0 0 42.261333-65.109333c1.706667-3.242667 2.56-6.698667 2.666667-10.112zM776.106667 805.12c0.213333-5.802667-1.706667-11.690667-5.76-16.448a24.682667 24.682667 0 0 0-34.56-2.901333 345.664 345.664 0 0 1-56.426667 38.357333 23.978667 23.978667 0 0 0-9.664 32.874667c6.506667 11.733333 21.418667 16 33.258667 9.578666a395.733333 395.733333 0 0 0 64.490666-43.754666c5.504-4.629333 8.426667-11.093333 8.661334-17.706667zM648.661333 873.770667a24.064 24.064 0 0 0-1.066666-8.042667 24.576 24.576 0 0 0-30.698667-15.936c-21.76 6.72-44.309333 11.242667-67.050667 13.482667a24.234667 24.234667 0 0 0-21.909333 26.538666c1.344 13.312 13.354667 23.04 26.794667 21.696a398.293333 398.293333 0 0 0 76.714666-15.424 24.32 24.32 0 0 0 17.216-22.314666z" p-id="1993"></path><path d="M639.061333 299.584h177.024c13.546667 0 24.512 10.858667 24.512 24.234667 0 13.376-10.965333 24.213333-24.512 24.213333h-177.024a24.362667 24.362667 0 0 1-24.490666-24.213333c0-13.376 10.965333-24.234667 24.490666-24.234667z" p-id="1994"></path></svg>