<?xml version="1.0" standalone="no"?><!DOCTYPE svg PUBLIC "-//W3C//DTD SVG 1.1//EN" "http://www.w3.org/Graphics/SVG/1.1/DTD/svg11.dtd"><svg t="1562375722051" class="icon" viewBox="0 0 1024 1024" version="1.1" xmlns="http://www.w3.org/2000/svg" p-id="4028" width="32" height="32" xmlns:xlink="http://www.w3.org/1999/xlink"><defs><style type="text/css"></style></defs><path d="M325.070452 397.774452H123.012129c-26.954323 0-40.431484 13.543226-40.431484 40.629677v406.461936c0 27.086452 13.477161 40.66271 40.431484 40.662709h202.091355c26.954323 0 40.431484-13.543226 40.431484-40.662709V438.404129c-0.033032-27.086452-13.510194-40.629677-40.464516-40.629677z m525.411096 0h-202.091354c-26.954323 0-40.398452 13.543226-40.398452 40.629677v406.461936c0 27.086452 13.477161 40.66271 40.398452 40.662709h202.091354c26.954323 0 40.398452-13.543226 40.398452-40.662709V438.404129c0.033032-27.086452-13.444129-40.629677-40.398452-40.629677zM446.331871 844.899097h80.829935v-81.292387h-80.829935v81.292387z m0 162.584774h80.829935v-81.292387h-80.829935V1007.483871z m0-650.372129h80.829935V275.819355h-80.829935v81.292387z m0 162.617806h80.829935v-81.292387h-80.829935v81.292387z m0 162.584775h80.829935v-81.292388h-80.829935v81.292388z m290.849032-524.056775l-53.347097 103.093678 257.651613 2.840774L810.479484 16.549161l-47.500387 91.961807C502.420645 4.459355 274.762323 40.002065 82.977032 216.229161l32.17342 43.668645c175.137032-160.900129 381.522581-195.121548 622.030451-101.640258z" p-id="4029"></path></svg>