<?xml version="1.0" standalone="no"?><!DOCTYPE svg PUBLIC "-//W3C//DTD SVG 1.1//EN" "http://www.w3.org/Graphics/SVG/1.1/DTD/svg11.dtd"><svg t="1562375700814" class="icon" viewBox="0 0 1024 1024" version="1.1" xmlns="http://www.w3.org/2000/svg" p-id="3884" width="32" height="32" xmlns:xlink="http://www.w3.org/1999/xlink"><defs><style type="text/css"></style></defs><path d="M585.728 108.606061H178.424242c-27.151515 0-40.742788 13.156848-40.742787 39.439515v197.135515c0 26.282667 13.591273 39.439515 40.742787 39.439515h407.303758c27.151515 0 40.711758-13.156848 40.711758-39.439515V148.045576c0-26.282667-13.560242-39.439515-40.711758-39.439515z m0 512.558545H178.424242c-27.151515 0-40.742788 13.125818-40.742787 39.439515v197.135515c0 26.282667 13.591273 39.408485 40.742787 39.408485h407.303758c27.151515 0 40.711758-13.125818 40.711758-39.408485v-197.135515c0-26.313697-13.560242-39.439515-40.711758-39.439515zM15.515152 542.285576h81.454545v-78.848H15.515152v78.848z m162.90909-78.848v78.848h81.454546v-78.848H178.424242z m162.940122 0v78.848h81.454545v-78.848h-81.454545z m325.818181 78.848h81.454546v-78.848h-81.454546v78.848z m-81.454545-78.848h-81.454545v78.848h81.454545v-78.848zM916.324848 772.344242c104.261818-254.169212 68.608-476.253091-107.954424-663.365818l-43.752727 31.371637c161.202424 170.852848 195.521939 372.177455 101.841455 606.828606l-103.299879-52.037819-2.823758 251.345455 248.149333-127.813818-92.16-46.328243z" p-id="3885"></path></svg>