<?xml version="1.0" standalone="no"?><!DOCTYPE svg PUBLIC "-//W3C//DTD SVG 1.1//EN" "http://www.w3.org/Graphics/SVG/1.1/DTD/svg11.dtd"><svg t="1562375964995" class="icon" viewBox="0 0 1024 1024" version="1.1" xmlns="http://www.w3.org/2000/svg" p-id="1423" width="32" height="32" xmlns:xlink="http://www.w3.org/1999/xlink"><defs><style type="text/css"></style></defs><path d="M810.666667 533.333333H240.64a21.333333 21.333333 0 1 1 0-42.666666H810.666667a21.333333 21.333333 0 0 1 0 42.666666z" p-id="1424"></path><path d="M490.666667 810.666667a21.333333 21.333333 0 0 1-15.146667-6.186667l-277.333333-277.333333a21.333333 21.333333 0 0 1 0-30.293334l277.333333-277.333333a21.333333 21.333333 0 0 1 30.293333 30.293333L243.413333 512l262.4 262.186667a21.333333 21.333333 0 0 1 0 30.293333A21.333333 21.333333 0 0 1 490.666667 810.666667z" p-id="1425"></path></svg>