<?xml version="1.0" standalone="no"?><!DOCTYPE svg PUBLIC "-//W3C//DTD SVG 1.1//EN" "http://www.w3.org/Graphics/SVG/1.1/DTD/svg11.dtd"><svg t="1562375946558" class="icon" viewBox="0 0 1024 1024" version="1.1" xmlns="http://www.w3.org/2000/svg" p-id="1240" width="32" height="32" xmlns:xlink="http://www.w3.org/1999/xlink"><defs><style type="text/css"></style></defs><path d="M512 832a21.333333 21.333333 0 0 1-21.333333-21.333333V213.333333a21.333333 21.333333 0 0 1 42.666666 0v597.333334a21.333333 21.333333 0 0 1-21.333333 21.333333z" p-id="1241"></path><path d="M789.333333 512a21.333333 21.333333 0 0 1-15.146666-6.186667L512 243.413333l-262.186667 262.4a21.333333 21.333333 0 0 1-30.293333-30.293333l277.333333-277.333333a21.333333 21.333333 0 0 1 30.293334 0l277.333333 277.333333a21.333333 21.333333 0 0 1 0 30.293333A21.333333 21.333333 0 0 1 789.333333 512z" p-id="1242"></path></svg>