<?xml version="1.0" standalone="no"?><!DOCTYPE svg PUBLIC "-//W3C//DTD SVG 1.1//EN" "http://www.w3.org/Graphics/SVG/1.1/DTD/svg11.dtd"><svg t="1566004829076" class="icon" viewBox="0 0 1024 1024" version="1.1" xmlns="http://www.w3.org/2000/svg" p-id="10493" xmlns:xlink="http://www.w3.org/1999/xlink" width="32" height="32"><defs><style type="text/css"></style></defs><path d="M817.3 551.1c-7.9 10.7-17.2 19.8-27.2 27.1-23 30.8-56 46.8-85.2 37.2-40.3-13.2-58-69.6-39.5-126.1 5.8-17.7 14.7-33 25.1-45.7l68.3-160.3 28.1-66.1c-84.6-85.9-216.1-138.1-394.6-109.6C0.8 170.1-120 649.1 134.1 874c237.7 210.5 362.4 67.1 452.6-92.1 10.2-18 34.3-28.6 54.9-26.4 65.5 7 199.8-0.4 246.3-164.7 13-46 16-96.6 9.1-147.3l-79.7 107.6z m-585.4-206c44.9 0 81.2 36.4 81.2 81.2 0 44.9-36.4 81.2-81.2 81.2-44.8 0-81.2-36.4-81.2-81.2 0-44.9 36.4-81.2 81.2-81.2z m-46.8 371.6c-44.8 0-81.2-36.4-81.2-81.2 0-44.8 36.3-81.2 81.2-81.2s81.2 36.4 81.2 81.2c0 44.9-36.4 81.2-81.2 81.2z m159.3 162.5c-44.8 0-81.2-36.3-81.2-81.2 0-44.9 36.4-81.2 81.2-81.2 44.9 0 81.2 36.4 81.2 81.2 0 44.8-36.3 81.2-81.2 81.2zM410 366.9c-44.8 0-81.2-36.3-81.2-81.2 0-44.8 36.4-81.2 81.2-81.2 44.8 0 81.2 36.4 81.2 81.2 0 44.9-36.4 81.2-81.2 81.2zM939.5 66.6c-52.6 3.4-92 54.3-92 54.3l0.4 0.2c-2.2 2.2-4.4 4.5-6.4 6.9-35.8 42.6-30.2 106.2 12.5 142 42.6 35.8 106.2 30.2 142-12.4 13-15.4 20.4-33.7 22.7-52.3 19.4-91.6-20.4-153.5-20.4-153.5s-6.2 11.4-58.8 14.8z" fill="" p-id="10494"></path><path d="M707.3 579.5c19.8 11.5 52.7-1.9 73.5-30l96.9-130.9c-45.1-10.4-85.6-38.4-111.7-60.2-2.4-2-4.7-4-6.9-5.9l-63 148c-13.5 32-8.6 67.5 11.2 79zM844.3 281.4c-16-13.4-27.4-30.2-34.2-48.5l-28.9 68c25.6 25.4 81.6 69.7 132.7 69l52.9-71.4c-39.5 17.4-87.2 12.5-122.5-17.1z" fill="" p-id="10495"></path></svg>